<?xml version="1.0" encoding="utf-8"?>
<!-- Generator: Adobe Illustrator 25.4.1, SVG Export Plug-In . SVG Version: 6.00 Build 0)  -->
<svg version="1.1" id="Layer_1" xmlns="http://www.w3.org/2000/svg" xmlns:xlink="http://www.w3.org/1999/xlink" x="0px" y="0px"
	 viewBox="0 0 841.89 595.28" style="enable-background:new 0 0 841.89 595.28;" xml:space="preserve">
<style type="text/css">
	.st0{fill:#FFFFFF;stroke:#000000;stroke-width:3;stroke-miterlimit:10;}
</style>
<path class="st0" d="M816.6,458.24h-69.33c-2.77,0-5.01-2.24-5.01-5.01V267.36c0-2.77,2.24-5.01,5.01-5.01h69.33
	c2.77,0,5.01,2.24,5.01,5.01v185.87C821.61,456,819.37,458.24,816.6,458.24z"/>
<path class="st0" d="M827.12,252.43h-90.37c-2.29,0-4.14-1.86-4.14-4.14V113.99c0-2.29,1.85-4.14,4.14-4.14h90.37
	c2.29,0,4.14,1.86,4.14,4.14v134.29C831.27,250.57,829.41,252.43,827.12,252.43z"/>
<path class="st0" d="M278.67,422.6l-57.16,38.22c-2.43,1.63-5.72,0.97-7.35-1.46L27.75,180.55c-1.63-2.43-0.97-5.72,1.46-7.35
	l57.16-38.22c2.43-1.63,5.72-0.97,7.35,1.46l186.42,278.81C281.76,417.68,281.11,420.97,278.67,422.6z"/>
<path class="st0" d="M363.32,458.24h-75.56c-3.1,0-5.61-2.51-5.61-5.61V115.46c0-3.1,2.51-5.61,5.61-5.61h75.56
	c3.1,0,5.61,2.51,5.61,5.61v337.17C368.94,455.73,366.42,458.24,363.32,458.24z"/>
<path class="st0" d="M99.2,458.24H15.03c-2.43,0-4.41-1.97-4.41-4.41V114.26c0-2.43,1.97-4.41,4.41-4.41H99.2
	c2.43,0,4.41,1.97,4.41,4.41v339.58C103.61,456.27,101.64,458.24,99.2,458.24z"/>
<path class="st0" d="M699.31,153.7L552.43,300.59c-1.27,1.27-3.33,1.27-4.59,0l-40.37-40.37c-1.27-1.27-1.27-3.33,0-4.59
	l146.88-146.88c1.27-1.27,3.33-1.27,4.59,0l40.37,40.37C700.58,150.38,700.58,152.43,699.31,153.7z"/>
<path class="st0" d="M664.81,461.63L508.14,352.62c-2.14-1.49-2.66-4.42-1.18-6.56l30.36-43.64c1.49-2.14,4.42-2.66,6.56-1.18
	l156.67,109.01c2.14,1.49,2.66,4.42,1.18,6.56l-30.36,43.64C669.88,462.58,666.94,463.11,664.81,461.63z"/>
<path class="st0" d="M501.09,458.24h-67.17c-2.34,0-4.23-1.89-4.23-4.23v-338.7c0-2.34,1.89-4.23,4.23-4.23h67.17
	c2.34,0,4.23,1.89,4.23,4.23v338.7C505.32,456.35,503.43,458.24,501.09,458.24z"/>
</svg>
